<svg width="95" height="18" viewBox="0 0 95 18" fill="none" xmlns="http://www.w3.org/2000/svg">
<g clip-path="url(#clip0_8353_80504)">
<mask id="mask0_8353_80504" style="mask-type:luminance" maskUnits="userSpaceOnUse" x="0" y="0" width="95" height="18">
<path d="M94.3272 0H0.5V18H94.3272V0Z" fill="white"/>
</mask>
<g mask="url(#mask0_8353_80504)">
<path d="M8.04399 3.3508L6.47179 14.4438H0.947364L0.460938 17.9312H5.53368C6.74106 17.9224 7.71392 17.5194 8.51305 16.8359C9.31218 16.1525 9.85941 15.1798 10.0245 14.0232L11.5359 3.34204H8.04399V3.3508Z" fill="#2635D9"/>
<path d="M70.0814 11.5874C70.8457 10.904 71.3322 9.88754 71.4798 8.76597L72.7133 -0.0576172H69.2474L69.2388 -0.022566L67.4668 12.7002L67.5276 12.6915C68.5264 12.5776 69.4125 12.1833 70.0814 11.5874Z" fill="#2635D9"/>
<path d="M91.7259 11.5874C92.4903 10.904 92.9767 9.88754 93.1244 8.76597L94.3578 -0.0576172H90.892L90.8833 -0.022566L89.1113 12.7002L89.1721 12.6915C90.1624 12.5776 91.0484 12.1833 91.7259 11.5874Z" fill="#2635D9"/>
<path d="M44.6302 8.74832L44.665 8.50298L45.3859 3.33325H41.9288L41.1036 9.18644H39.1232L38.6367 12.6826H40.0178C41.234 12.6738 42.3023 12.2532 43.1101 11.5698C43.9267 10.8863 44.4652 9.9137 44.6302 8.74832Z" fill="#2635D9"/>
<path d="M50.1048 8.74832L50.1396 8.50298L50.8604 3.33325H47.4034L46.5781 9.18644H44.5977L44.1113 12.6826H45.4924C46.7085 12.6738 47.7768 12.2532 48.5847 11.5698C49.3925 10.8863 49.931 9.9137 50.1048 8.74832Z" fill="#2635D9"/>
<path d="M65.2761 13.883L66.7354 3.34204H63.2349L61.6888 14.4351H54.7571L55.8169 6.82942H52.3771L50.8223 17.9312L61.7582 17.9224C62.8875 17.8436 63.6432 17.3792 64.2078 16.6694C64.7984 15.9509 65.1198 14.9871 65.2761 13.883Z" fill="#2635D9"/>
<path d="M39.8793 3.34204H36.4742L35.6491 9.20399H28.7174L29.5427 3.34204H26.0335L23.9922 18.0013L24.053 17.9925C24.5394 17.94 25.1996 17.791 25.7034 17.5457C26.3721 17.2215 27.0063 16.7308 27.4579 16.0736C27.6143 15.8458 27.7446 15.4602 27.8401 15.1273C27.9357 14.7943 27.9965 14.5139 27.9965 14.5139L28.2397 12.6914H34.3722C35.597 12.6914 36.8043 12.262 37.6382 11.5786C38.4721 10.8951 39.0106 9.91373 39.1843 8.75711L39.9401 3.34204H39.8793Z" fill="#2635D9"/>
<path d="M59.2852 6.83821L59.7716 3.35083H57.5306C57.1745 3.35083 56.8184 3.51731 56.5751 3.72761C56.3405 3.9379 56.1842 4.22706 56.1408 4.57755L55.8281 6.83821H59.2852Z" fill="#FA8100"/>
<path d="M16.4196 3.34204C14.7693 3.34204 13.3968 4.4899 13.1536 6.11091L12.6845 9.51067C12.6585 9.66839 12.6498 9.82611 12.6585 9.97507C12.6845 10.6936 13.0059 11.3683 13.5098 11.8677C14.0135 12.3672 14.6997 12.6826 15.4467 12.6826L18.0526 12.6914L18.5478 9.20399H16.2198L16.5499 6.83818H20.0244L18.956 14.4438H12.0244L11.5293 17.94H18.0266C19.1905 17.8874 20.1807 17.5106 20.9364 16.8622C21.6922 16.2138 22.2654 15.3025 22.4739 14.1722L23.9853 3.3508L16.4196 3.34204Z" fill="#2635D9"/>
<path d="M77.543 17.9224H82.4419C83.1108 17.9224 83.6581 17.6858 84.0663 17.3091C84.4746 16.9323 84.7612 16.3978 84.8568 15.7669L85.0479 14.4263H78.038L77.543 17.9224Z" fill="#2635D9"/>
<path d="M84.8656 3.35078L84.0403 9.20396H77.0045L77.8211 3.35078H74.2771L72.7483 14.4438H67.2239L66.7461 17.9312H71.9752C71.9752 17.9312 72.0534 17.9312 72.175 17.9312C74.2597 17.9224 75.9883 16.4153 76.2836 14.3474L76.5181 12.6913H83.25C85.4649 12.6913 87.3063 11.0878 87.6104 8.88852L88.3921 3.33325H84.8656V3.35078Z" fill="#2635D9"/>
</g>
</g>
<defs>
<clipPath id="clip0_8353_80504">
<rect width="94" height="18" fill="white" transform="translate(0.5)"/>
</clipPath>
</defs>
</svg>
