<svg xmlns="http://www.w3.org/2000/svg" xmlns:xlink="http://www.w3.org/1999/xlink" width="103px" height="34px" viewBox="0 0 3172 1025" enable-background="new 0 0 3172 1025" xml:space="preserve">
                        <g>
                            <path fill-rule="evenodd" clip-rule="evenodd" fill="none" d="M0,0c1057.333,0,2114.667,0,3172,0c0,341.667,0,683.333,0,1025
                        		c-1057.333,0-2114.667,0-3172,0C0,683.333,0,341.667,0,0z M2390.133,548.805c-1.707,1.271-3.536,2.31-4.971,3.744
                        		c-60.947,60.907-121.862,121.845-182.763,182.799c-2.807,2.809-7.051,5.495-7.665,8.79c-0.554,2.964,2.973,6.686,4.688,10.079
                        		c0.898,1.778,1.671,3.627,2.674,5.343c14.224,24.343,29.996,47.59,47.89,69.436c20.335,24.827,42.387,47.948,67.362,68.082
                        		c48.883,39.405,102.512,70.29,162.465,89.87c24.837,8.111,50.172,13.946,75.785,18.605c12.739,2.317,25.743,3.28,38.661,4.509
                        		c34.549,3.286,69.065,2.629,103.468-1.858c24.901-3.249,49.435-8.249,73.712-14.896c41.205-11.281,80.039-28.064,116.855-49.405
                        		c31.792-18.429,60.881-40.648,87.927-65.636c54.625-50.467,95.44-110.439,123.477-179.069
                        		c14.942-36.578,25.594-74.542,30.502-113.857c2.512-20.12,4.694-40.361,5.388-60.604c0.608-17.755-0.73-35.609-1.819-53.382
                        		c-1.621-26.455-6.558-52.4-12.8-78.144c-8.869-36.568-22.277-71.411-38.973-105.051c-21.936-44.203-50.932-83.564-83.846-120.024
                        		c-10.004-11.081-21.066-21.289-32.66-31.032c-39.279-33.009-81.711-60.615-128.765-81.174
                        		c-36.136-15.789-73.433-27.869-112.347-34.11c-22.566-3.619-45.461-5.266-68.244-7.426c-8.575-0.813-17.264-0.976-25.876-0.7
                        		c-10.892,0.349-21.751,1.597-32.639,2.199c-34.549,1.91-68.281,8.483-101.438,18.042c-49.29,14.21-95.323,35.656-137.683,64.545
                        		c-107.021,72.986-176.193,172.565-207.673,298.178c-7.376,29.434-12.34,59.38-12.648,89.815c-0.245,24.1-0.448,48.28,1.215,72.293
                        		c1.315,18.995,5.28,37.828,8.493,56.66c1.539,9.024,4.062,17.881,6.317,27.582c2.097-1.987,3.318-3.092,4.481-4.254
                        		c97.61-97.544,195.201-195.108,292.854-292.61c7.777-7.765,15.648-15.5,24.054-22.56c36.552-30.701,78.563-49.77,125.761-56.639
                        		c41.055-5.974,81.26-1.889,120.349,12.573c28.73,10.629,55.077,25.489,77.944,45.696c50.69,44.791,79.24,101.125,84.875,168.708
                        		c2.813,33.758-0.706,66.929-12.126,98.891c-26.872,75.205-77.604,126.967-152.741,154.814
                        		c-21.767,8.067-44.256,12.263-67.114,13.821c-51.625,3.519-100.131-8.155-144.19-35.117
                        		C2442,685.73,2403.279,626.078,2390.133,548.805z M781.473,396.449c0,2.281,0,4.237,0,6.194c0,34.833,0.076,69.666-0.063,104.498
                        		c-0.029,7.138-0.502,14.319-1.396,21.401c-3.174,25.135-16.642,37.969-42.032,38.547c-29.982,0.683-59.989,0.468-89.983,0.249
                        		c-8.951-0.065-17.978-0.925-26.819-2.354c-13.888-2.246-26.805-6.934-35.823-18.704c-7.739-10.1-10.344-21.887-10.4-34.266
                        		c-0.144-31.999-0.048-63.999-0.048-95.998c0-1.913,0-3.826,0-5.607c-30.404,0-60.001,0-90.019,0c0,2.284,0,4.253,0,6.223
                        		c0,30.166,0.031,60.333-0.032,90.498c-0.01,4.818-0.156,9.669-0.727,14.447c-2.44,20.396-12.511,35.107-32.875,40.692
                        		c-9.696,2.659-19.905,4.514-29.924,4.724c-31.816,0.668-63.651,0.395-95.479,0.467c-1.461,0.003-2.923-0.163-4.944-0.284
                        		c0-2.011,0-3.797,0-5.583c0-13.833,0.089-27.667-0.022-41.499c-0.141-17.554-2.126-34.897-6.994-51.804
                        		c-11.759-40.842-36.773-68.844-78.707-79.813c-24.194-6.329-48.806-6.57-73.331-2.226c-42.721,7.568-72.664,31.236-86.958,72.576
                        		c-13.438,38.864-13.385,78.626-3.021,118.091c13.007,49.527,45.663,76.783,96.712,80.976c18.713,1.537,37.624,0.669,56.444,0.892
                        		c1.939,0.022,3.878,0.003,5.81,0.003c-0.008,25.08-11.539,46.065-28.16,57.373c-16.664,11.337-35.628,15.749-55.21,16.765
                        		c-22.605,1.173-45.289,0.843-67.938,1.161c-1.766,0.024-3.532,0.003-5.296,0.003c0,30.771,0,60.844,0,91.069
                        		c1.133,0.146,1.942,0.339,2.752,0.34c17.833,0.022,35.668,0.204,53.498-0.02c21.692-0.271,43.24-2.285,64.308-7.681
                        		c67.75-17.352,109.613-59.391,122.204-128.999c1.768-9.776,2.763-19.692,4.18-30.011c2.023,0,3.991,0.014,5.958-0.002
                        		c35.15-0.294,70.332,0.209,105.44-1.151c26.776-1.037,52.192-8.657,74.884-23.486c8.436-5.513,16.157-12.12,23.622-17.787
                        		c8.913,6.564,17.471,13.809,26.905,19.632c24.552,15.154,51.921,21.58,80.386,22.355c32.308,0.88,64.654,0.502,96.982,0.35
                        		c9.963-0.047,20.01-0.509,29.866-1.88c38.987-5.421,68.155-25.167,86.088-60.6c13.551-26.775,17.772-55.669,18.113-85.192
                        		c0.419-36.328,0.104-72.664,0.09-108.997c0-1.79-0.159-3.579-0.253-5.583C840.043,396.449,811.26,396.449,781.473,396.449z
                        		 M1583.476,635.071c9.053,5.199,17.119,10.609,25.811,14.681c28.429,13.316,58.481,16.288,89.295,12.152
                        		c42.14-5.654,72.504-27.387,89.293-66.942c8.352-19.676,11.981-40.417,13.361-61.648c1.862-28.634,0.191-56.939-8.373-84.479
                        		c-10.54-33.892-30.195-60.318-63.828-74.302c-22.58-9.388-46.324-11.319-70.578-9.606c-64.553,4.559-98.63,49.081-108.284,95.434
                        		c-6.417,30.813-7.107,62.125-7.281,93.45c-0.054,9.644-3,12.989-12.752,13.261c-12.654,0.354-25.339,0.747-37.976,0.236
                        		c-10.768-0.435-21.644-1.328-32.19-3.431c-19.332-3.855-33.588-14.362-38.692-34.407c-1.464-5.749-2.231-11.826-2.271-17.76
                        		c-0.216-31.996-0.102-63.993-0.102-95.99c0-1.766,0-3.531,0-5.381c-30.253,0-59.845,0-90.019,0c0,2.186,0,4.133,0,6.08
                        		c0,31.997,0.139,63.994-0.069,95.99c-0.083,12.67-2.54,24.872-10.715,35.154c-10.113,12.72-24.495,17.522-39.635,18.32
                        		c-26.255,1.384-52.595,1.267-78.901,1.512c-7.134,0.066-14.319-0.482-21.408-1.341c-21.158-2.565-32.592-12.47-35.843-30.878
                        		c-0.661-3.745-0.751-7.625-0.758-11.444c-0.058-31.164-0.033-62.327-0.033-93.491c0-1.957,0-3.914,0-5.541
                        		c-30.344,0-60.036,0-90.054,0c0,2.915,0,5.069,0,7.224c0,72.326,0.037,144.652-0.059,216.978
                        		c-0.009,6.97-0.341,14.014-1.383,20.894c-3.912,25.829-17.302,44.581-41.908,54.656c-14.649,5.999-30.005,8.995-45.696,9.562
                        		c-20.301,0.734-40.633,0.626-60.952,0.875c-1.952,0.023-3.905,0.003-6.099,0.003c0,30.602,0,60.662,0,90.965
                        		c1.73,0.095,3.192,0.243,4.654,0.244c16.998,0.016,33.998,0.15,50.995-0.021c30.134-0.303,59.782-3.927,88.298-14.225
                        		c38.078-13.75,67.604-37.414,85.329-74.5c9.67-20.232,14.449-41.748,16.206-63.98c0.687-8.697,0.9-17.432,1.351-26.602
                        		c2.238,0.962,3.976,1.98,5.852,2.47c11.378,2.97,22.677,7.667,34.208,8.361c34.568,2.077,69.286,3.005,103.796-0.865
                        		c32.755-3.674,62.101-15.778,86.34-38.819c0.924-0.878,1.958-1.641,3.099-2.588c22.17,22.478,49.279,34.499,79.63,40.13
                        		c21.289,3.951,42.788,3.531,64.26,3.214c7.443-0.109,14.953-1.079,22.281-2.46C1557.72,653.19,1571.802,645.94,1583.476,635.071z
                        		 M2786.704,514.184c0.239-81.148-63.165-150.594-150.904-151.006c-40.081-0.189-75.097,14.627-103.865,42.927
                        		c-32.732,32.2-47.842,71.592-45.064,117.233c4.415,72.526,62.923,138.836,148.011,140.039
                        		C2720.393,664.584,2786.322,595.499,2786.704,514.184z M540.7,342.084c27.296,0.135,49.165-21.927,49.203-49.638
                        		c0.038-27.108-21.967-49.138-49.176-49.236c-27.351-0.098-49.546,22.069-49.513,49.449
                        		C491.247,320.246,512.976,341.947,540.7,342.084z M813.011,822.083c27.131,0.328,49.317-21.792,49.513-49.364
                        		c0.19-26.809-21.633-49.116-48.433-49.508c-26.781-0.392-49.035,21-50.162,46.641C762.523,801.875,788.706,822.497,813.011,822.083
                        		z M1411.909,772.586c0.002-27.709-21.652-49.387-49.322-49.376c-27.162,0.011-48.955,21.886-49.108,49.292
                        		c-0.153,27.515,21.609,49.397,49.302,49.575C1390.198,822.254,1411.906,800.384,1411.909,772.586z M1252.229,822.071
                        		c26.96,0.491,49.08-21.207,49.651-48.702c0.559-26.947-21.369-49.747-48.241-50.157c-27.747-0.424-50.067,21.273-50.424,49.016
                        		C1202.861,799.622,1224.44,821.565,1252.229,822.071z M430.065,342.082c27.046,0.451,49.291-21.594,49.717-49.274
                        		c0.409-26.525-21.731-49.199-48.428-49.596c-27.659-0.412-49.783,20.977-50.252,48.583
                        		C380.627,319.698,401.964,341.613,430.065,342.082z M1081.518,347.079c27.073,0.486,49.178-21.271,49.588-48.806
                        		c0.402-27.066-21.01-49.467-47.852-50.061c-27.135-0.6-49.21,20.578-50.539,46.835
                        		C1031.272,323.578,1054.387,347.512,1081.518,347.079z M653.89,772.193c-0.063,28.391,21.05,49.818,49.156,49.89
                        		c27.423,0.069,49.06-21.838,49.063-49.676c0.003-27.235-21.811-49.103-49.073-49.196
                        		C675.614,723.117,653.951,744.708,653.89,772.193z"></path>
                            <path class="mizito-logo-parts" fill-rule="evenodd" clip-rule="evenodd" fill="#D32E2F" d="M2390.133,548.805c13.146,77.273,51.867,136.925,118.217,177.527
                        		c44.06,26.961,92.565,38.636,144.19,35.117c22.858-1.558,45.348-5.754,67.114-13.821c75.138-27.847,125.869-79.61,152.741-154.814
                        		c11.42-31.961,14.939-65.132,12.126-98.891c-5.635-67.583-34.185-123.917-84.875-168.708
                        		c-22.867-20.208-49.214-35.067-77.944-45.696c-39.089-14.462-79.294-18.547-120.349-12.573
                        		c-47.197,6.869-89.209,25.938-125.761,56.639c-8.405,7.06-16.276,14.795-24.054,22.56
                        		c-97.652,97.501-195.243,195.066-292.854,292.61c-1.163,1.163-2.385,2.267-4.481,4.254c-2.256-9.701-4.778-18.558-6.317-27.582
                        		c-3.213-18.832-7.178-37.665-8.493-56.66c-1.663-24.014-1.46-48.194-1.215-72.293c0.309-30.435,5.272-60.381,12.648-89.815
                        		c31.479-125.613,100.652-225.192,207.673-298.178c42.359-28.889,88.393-50.334,137.683-64.545
                        		c33.156-9.56,66.889-16.133,101.438-18.042c10.888-0.602,21.747-1.85,32.639-2.199c8.612-0.276,17.301-0.113,25.876,0.7
                        		c22.783,2.16,45.678,3.807,68.244,7.426c38.914,6.241,76.211,18.321,112.347,34.11c47.054,20.559,89.485,48.165,128.765,81.174
                        		c11.594,9.743,22.656,19.951,32.66,31.032c32.914,36.46,61.91,75.821,83.846,120.024c16.695,33.64,30.104,68.482,38.973,105.051
                        		c6.242,25.743,11.179,51.688,12.8,78.144c1.089,17.773,2.428,35.627,1.819,53.382c-0.693,20.243-2.876,40.484-5.388,60.604
                        		c-4.908,39.315-15.56,77.279-30.502,113.857c-28.036,68.63-68.852,128.603-123.477,179.069
                        		c-27.046,24.988-56.135,47.207-87.927,65.636c-36.816,21.341-75.65,38.125-116.855,49.405
                        		c-24.277,6.646-48.811,11.647-73.712,14.896c-34.402,4.488-68.919,5.144-103.468,1.858c-12.918-1.229-25.922-2.191-38.661-4.509
                        		c-25.613-4.659-50.948-10.494-75.785-18.605c-59.953-19.58-113.582-50.465-162.465-89.87
                        		c-24.976-20.134-47.027-43.255-67.362-68.082c-17.894-21.845-33.666-45.092-47.89-69.436c-1.003-1.716-1.775-3.565-2.674-5.343
                        		c-1.716-3.393-5.242-7.114-4.688-10.079c0.614-3.295,4.858-5.98,7.665-8.79c60.9-60.954,121.815-121.892,182.763-182.799
                        		C2386.597,551.114,2388.426,550.075,2390.133,548.805z"></path>
                            <path class="mizito-logo-parts" fill-rule="evenodd" clip-rule="evenodd" fill="#101214" d="M781.473,396.449c29.787,0,58.57,0,87.79,0
                        		c0.095,2.004,0.253,3.794,0.253,5.583c0.014,36.333,0.33,72.669-0.09,108.997c-0.34,29.523-4.562,58.417-18.113,85.192
                        		c-17.934,35.433-47.101,55.179-86.088,60.6c-9.856,1.371-19.903,1.833-29.866,1.88c-32.328,0.152-64.674,0.53-96.982-0.35
                        		c-28.464-0.775-55.833-7.201-80.386-22.355c-9.435-5.823-17.992-13.067-26.905-19.632c-7.465,5.667-15.186,12.273-23.622,17.787
                        		c-22.692,14.829-48.108,22.449-74.884,23.486c-35.109,1.36-70.29,0.856-105.44,1.151c-1.967,0.017-3.935,0.002-5.958,0.002
                        		c-1.417,10.318-2.412,20.234-4.18,30.011c-12.591,69.607-54.454,111.647-122.204,128.999c-21.068,5.396-42.616,7.41-64.308,7.681
                        		c-17.83,0.224-35.665,0.042-53.498,0.02c-0.81-0.001-1.619-0.194-2.752-0.34c0-30.225,0-60.299,0-91.069
                        		c1.764,0,3.53,0.021,5.296-0.003c22.649-0.317,45.333,0.012,67.938-1.161c19.582-1.016,38.546-5.427,55.21-16.765
                        		c16.621-11.308,28.152-32.293,28.16-57.373c-1.932,0-3.871,0.02-5.81-0.003c-18.82-0.223-37.731,0.645-56.444-0.892
                        		c-51.05-4.193-83.706-31.449-96.712-80.976c-10.364-39.465-10.417-79.228,3.021-118.091c14.293-41.339,44.237-65.007,86.958-72.576
                        		c24.525-4.345,49.137-4.104,73.331,2.226c41.934,10.97,66.948,38.972,78.707,79.813c4.868,16.906,6.853,34.25,6.994,51.804
                        		c0.111,13.833,0.022,27.666,0.022,41.499c0,1.786,0,3.572,0,5.583c2.021,0.121,3.483,0.287,4.944,0.284
                        		c31.828-0.073,63.663,0.201,95.479-0.467c10.019-0.21,20.229-2.065,29.924-4.724c20.364-5.584,30.435-20.296,32.875-40.692
                        		c0.571-4.778,0.717-9.629,0.727-14.447c0.063-30.166,0.032-60.332,0.032-90.498c0-1.969,0-3.938,0-6.223
                        		c30.018,0,59.615,0,90.019,0c0,1.781,0,3.694,0,5.607c0,31.999-0.096,63.999,0.048,95.998c0.056,12.378,2.661,24.166,10.4,34.266
                        		c9.019,11.77,21.936,16.458,35.823,18.704c8.841,1.43,17.868,2.289,26.819,2.354c29.994,0.219,60.001,0.434,89.983-0.249
                        		c25.39-0.579,38.858-13.413,42.032-38.547c0.894-7.082,1.368-14.263,1.396-21.401c0.139-34.832,0.063-69.665,0.063-104.498
                        		C781.473,400.687,781.473,398.73,781.473,396.449z M234.33,567.091c0-13.227,0.282-25.683-0.092-38.12
                        		c-0.284-9.442-0.684-18.983-2.301-28.259c-3.073-17.628-13.087-27.561-30.469-29.316c-9.104-0.919-18.635-0.049-27.69,1.585
                        		c-12.676,2.287-20.858,10.509-24.204,23.079c-4.275,16.061-4.423,32.277-0.342,48.333c3.206,12.614,11.292,20.472,24.677,21.989
                        		c2.965,0.336,5.952,0.667,8.93,0.678C199.952,567.125,217.064,567.091,234.33,567.091z"></path>
                            <path class="mizito-logo-parts" fill-rule="evenodd" clip-rule="evenodd" fill="#101214" d="M1583.476,635.071c-11.674,10.869-25.756,18.119-41.803,21.144
                        		c-7.328,1.382-14.838,2.351-22.281,2.46c-21.473,0.317-42.971,0.736-64.26-3.214c-30.352-5.632-57.46-17.652-79.63-40.13
                        		c-1.141,0.948-2.175,1.71-3.099,2.588c-24.239,23.041-53.585,35.146-86.34,38.819c-34.51,3.871-69.228,2.942-103.796,0.865
                        		c-11.531-0.693-22.83-5.391-34.208-8.361c-1.876-0.49-3.613-1.508-5.852-2.47c-0.451,9.17-0.664,17.904-1.351,26.602
                        		c-1.757,22.233-6.536,43.748-16.206,63.98c-17.725,37.086-47.25,60.75-85.329,74.5c-28.516,10.297-58.164,13.921-88.298,14.225
                        		c-16.997,0.171-33.997,0.037-50.995,0.021c-1.462-0.001-2.924-0.149-4.654-0.244c0-30.304,0-60.364,0-90.965
                        		c2.193,0,4.146,0.021,6.099-0.003c20.319-0.249,40.651-0.141,60.952-0.875c15.691-0.567,31.047-3.563,45.696-9.562
                        		c24.606-10.075,37.996-28.827,41.908-54.656c1.042-6.879,1.374-13.924,1.383-20.894c0.096-72.326,0.059-144.652,0.059-216.978
                        		c0-2.155,0-4.309,0-7.224c30.018,0,59.71,0,90.054,0c0,1.627,0,3.584,0,5.541c0,31.164-0.025,62.327,0.033,93.491
                        		c0.007,3.818,0.097,7.699,0.758,11.444c3.251,18.408,14.686,28.313,35.843,30.878c7.089,0.859,14.274,1.408,21.408,1.341
                        		c26.307-0.245,52.646-0.127,78.901-1.512c15.14-0.798,29.521-5.6,39.635-18.32c8.175-10.282,10.632-22.484,10.715-35.154
                        		c0.208-31.996,0.069-63.993,0.069-95.99c0-1.947,0-3.894,0-6.08c30.174,0,59.766,0,90.019,0c0,1.851,0,3.616,0,5.381
                        		c0,31.997-0.114,63.994,0.102,95.99c0.04,5.934,0.808,12.011,2.271,17.76c5.104,20.045,19.36,30.552,38.692,34.407
                        		c10.546,2.103,21.422,2.996,32.19,3.431c12.636,0.511,25.322,0.117,37.976-0.236c9.752-0.272,12.699-3.618,12.752-13.261
                        		c0.174-31.326,0.864-62.637,7.281-93.45c9.653-46.354,43.731-90.875,108.284-95.434c24.253-1.713,47.998,0.218,70.578,9.606
                        		c33.633,13.984,53.288,40.41,63.828,74.302c8.564,27.541,10.235,55.846,8.373,84.479c-1.38,21.23-5.01,41.972-13.361,61.648
                        		c-16.789,39.555-47.153,61.288-89.293,66.942c-30.814,4.135-60.866,1.164-89.295-12.152
                        		C1600.595,645.68,1592.529,640.27,1583.476,635.071z M1716.363,514.063c-1.529-12.028-2.31-23.006-4.456-33.708
                        		c-2.175-10.84-7.051-20.437-17.709-25.804c-25.91-13.048-53.591-0.397-60.333,27.645c-4.057,16.876-3.809,33.991-2.653,51.139
                        		c0.156,2.314,0.586,4.623,1.039,6.904c4.984,25.118,17.985,35.517,43.999,35.232c17.936-0.196,30.415-9.042,34.683-26.435
                        		C1713.801,537.344,1714.707,525.17,1716.363,514.063z"></path>
                            <path class="mizito-logo-parts" fill-rule="evenodd" clip-rule="evenodd" fill="#D32E2F" d="M2786.704,514.184c-0.382,81.315-66.312,150.401-151.823,149.192
                        		c-85.088-1.203-143.596-67.513-148.011-140.039c-2.777-45.642,12.332-85.034,45.064-117.233
                        		c28.769-28.3,63.784-43.116,103.865-42.927C2723.539,363.59,2786.943,433.035,2786.704,514.184z"></path>
                            <path class="mizito-logo-parts" fill-rule="evenodd" clip-rule="evenodd" fill="#101214" d="M540.7,342.084c-27.724-0.137-49.453-21.839-49.486-49.425
                        		c-0.034-27.38,22.162-49.547,49.513-49.449c27.209,0.098,49.214,22.128,49.176,49.236
                        		C589.864,320.157,567.996,342.22,540.7,342.084z"></path>
                            <path class="mizito-logo-parts" fill-rule="evenodd" clip-rule="evenodd" fill="#101214" d="M813.011,822.083c-24.305,0.413-50.488-20.209-49.082-52.231
                        		c1.126-25.642,23.381-47.033,50.162-46.641c26.8,0.392,48.623,22.7,48.433,49.508C862.328,800.292,840.142,822.412,813.011,822.083
                        		z"></path>
                            <path class="mizito-logo-parts" fill-rule="evenodd" clip-rule="evenodd" fill="#101214" d="M1411.909,772.586c-0.002,27.798-21.711,49.667-49.127,49.491
                        		c-27.693-0.178-49.455-22.06-49.302-49.575c0.153-27.406,21.946-49.281,49.108-49.292
                        		C1390.257,723.199,1411.911,744.877,1411.909,772.586z"></path>
                            <path class="mizito-logo-parts" fill-rule="evenodd" clip-rule="evenodd" fill="#101214" d="M1252.229,822.071c-27.789-0.506-49.367-22.449-49.014-49.843
                        		c0.357-27.743,22.677-49.44,50.424-49.016c26.872,0.41,48.8,23.21,48.241,50.157
                        		C1301.309,800.864,1279.188,822.562,1252.229,822.071z"></path>
                            <path class="mizito-logo-parts" fill-rule="evenodd" clip-rule="evenodd" fill="#101214" d="M430.065,342.082c-28.101-0.469-49.438-22.383-48.963-50.288
                        		c0.469-27.605,22.593-48.994,50.252-48.583c26.697,0.397,48.837,23.071,48.428,49.596
                        		C479.355,320.487,457.111,342.533,430.065,342.082z"></path>
                            <path class="mizito-logo-parts" fill-rule="evenodd" clip-rule="evenodd" fill="#101214" d="M1081.518,347.079c-27.131,0.433-50.246-23.501-48.802-52.031
                        		c1.329-26.258,23.404-47.436,50.539-46.835c26.842,0.594,48.254,22.995,47.852,50.061
                        		C1130.696,325.808,1108.591,347.565,1081.518,347.079z"></path>
                            <path class="mizito-logo-parts" fill-rule="evenodd" clip-rule="evenodd" fill="#101214" d="M653.89,772.193c0.061-27.485,21.724-49.076,49.146-48.982
                        		c27.263,0.093,49.077,21.961,49.073,49.196c-0.003,27.838-21.64,49.746-49.063,49.676
                        		C674.94,822.012,653.827,800.584,653.89,772.193z"></path>
                            <path fill-rule="evenodd" clip-rule="evenodd" fill="none" d="M234.33,567.091c-17.266,0-34.378,0.033-51.491-0.031
                        		c-2.978-0.011-5.965-0.342-8.93-0.678c-13.385-1.517-21.471-9.375-24.677-21.989c-4.081-16.056-3.933-32.273,0.342-48.333
                        		c3.346-12.569,11.527-20.792,24.204-23.079c9.055-1.634,18.587-2.504,27.69-1.585c17.382,1.755,27.396,11.688,30.469,29.316
                        		c1.617,9.276,2.017,18.817,2.301,28.259C234.612,541.408,234.33,553.864,234.33,567.091z"></path>
                            <path fill-rule="evenodd" clip-rule="evenodd" fill="none" d="M1716.363,514.063c-1.656,11.107-2.563,23.281-5.431,34.973
                        		c-4.268,17.393-16.747,26.239-34.683,26.435c-26.013,0.284-39.015-10.115-43.999-35.232c-0.453-2.281-0.882-4.589-1.039-6.904
                        		c-1.156-17.148-1.404-34.263,2.653-51.139c6.742-28.042,34.422-40.693,60.333-27.645c10.658,5.367,15.534,14.963,17.709,25.804
                        		C1714.054,491.058,1714.834,502.035,1716.363,514.063z"></path>
                        </g>
                    </svg>