<svg width="102" height="32" viewBox="0 0 102 32" xmlns="http://www.w3.org/2000/svg"><g fill="none" fill-rule="evenodd"><path d="M0 0h102v32H0z"></path><path d="M23.314 22.875c1.04 0 1.885.84 1.885 1.875a1.88 1.88 0 0 1-1.885 1.875 1.88 1.88 0 0 1-1.884-1.875 1.88 1.88 0 0 1 1.884-1.875zm4.271 0c1.04 0 1.884.84 1.884 1.875a1.88 1.88 0 0 1-1.884 1.875 1.88 1.88 0 0 1-1.884-1.875 1.88 1.88 0 0 1 1.884-1.875zM8.82 10.75l2.863 11.94c.59.118 1.171.177 1.742.177.59 0 1.028-.113 1.314-.338a1.49 1.49 0 0 0 .546-.88c.079-.362.083-.782.015-1.261-.07-.48-.163-.973-.28-1.482l-1.95-8.156h4.41l1.087 4.536c.59.117 1.171.176 1.742.176.59 0 1.028-.113 1.313-.338a1.49 1.49 0 0 0 .547-.88c.078-.362.083-.782.014-1.261-.069-.48-.162-.974-.28-1.482l-.18-.751h4.414l.223.927c.571 2.308.423 4.127-.442 5.457-.866 1.33-2.46 1.995-4.783 1.995-.603 0-1.157-.02-1.662-.06l.004.013c.57 2.308.423 4.127-.443 5.457s-2.46 1.995-4.782 1.995c-.788 0-1.491-.034-2.111-.102a16.95 16.95 0 0 1-1.683-.265 15.008 15.008 0 0 1-1.357-.352l-.297-.092-.553-.169-.257-.076L4.422 10.75H8.82zM41.955 4.5l3.568 14.552c.57 2.308.423 4.127-.443 5.457s-2.46 1.995-4.782 1.995c-.788 0-1.491-.034-2.111-.103a16.95 16.95 0 0 1-1.683-.264 15.008 15.008 0 0 1-1.358-.352l-.296-.092-.553-.17-.258-.075L29.383 6.5h4.394l3.952 16.16c.59.118 1.171.177 1.742.177.59 0 1.028-.113 1.314-.338a1.49 1.49 0 0 0 .546-.88c.078-.362.083-.782.015-1.261-.07-.48-.163-.974-.28-1.482L37.618 4.5h4.336zm-32.031 0c1.04 0 1.884.84 1.884 1.875A1.88 1.88 0 0 1 9.924 8.25a1.88 1.88 0 0 1-1.885-1.875A1.88 1.88 0 0 1 9.924 4.5zM94.4 25.125c1.04 0 1.884.84 1.884 1.875a1.88 1.88 0 0 1-1.884 1.875A1.88 1.88 0 0 1 92.516 27a1.88 1.88 0 0 1 1.884-1.875zM86.706 10.75l1.088 4.536c.59.117 1.171.176 1.742.176.59 0 1.028-.113 1.313-.338a1.49 1.49 0 0 0 .546-.88c.08-.362.084-.782.015-1.261-.069-.48-.162-.974-.28-1.482l-.18-.751h4.414l.223.927c.57 2.308.423 4.127-.443 5.457s-2.46 1.995-4.782 1.995c-.608 0-1.166-.02-1.675-.061l.004.014c.57 2.308.423 4.127-.443 5.457s-2.46 1.995-4.782 1.995c-.787 0-1.49-.034-2.11-.102a16.95 16.95 0 0 1-1.683-.265 15.008 15.008 0 0 1-1.358-.352l-.296-.092-.554-.169-.257-.076 3.69-2.787c.59.117 1.17.176 1.741.176.59 0 1.029-.113 1.314-.338a1.49 1.49 0 0 0 .546-.88c.079-.362.084-.782.015-1.261-.069-.48-.162-.973-.28-1.482l-1.949-8.156h4.421zm-34.591 0 2.863 11.94c.59.118 1.171.177 1.742.177.59 0 1.028-.113 1.313-.338a1.49 1.49 0 0 0 .547-.88c.078-.362.083-.782.014-1.261-.069-.48-.162-.973-.28-1.482l-1.948-8.156h4.4l.54 2.253.55 2.283c.525.104 1.041.162 1.55.173l.19.003c.59 0 1.028-.113 1.314-.338a1.49 1.49 0 0 0 .546-.88c.078-.362.083-.782.015-1.261-.07-.48-.163-.974-.28-1.482l-.18-.751h4.423l1.088 4.536c.59.117 1.17.176 1.742.176.59 0 1.028-.113 1.313-.338a1.49 1.49 0 0 0 .546-.88c.079-.362.084-.782.015-1.261-.069-.48-.162-.974-.28-1.482l-.18-.751h4.414l.223.927c.57 2.308.423 4.127-.443 5.457s-2.46 1.995-4.782 1.995c-.787 0-1.49-.034-2.11-.103a16.95 16.95 0 0 1-1.683-.264 15.503 15.503 0 0 1-1.222-.31l-.136-.042a72.484 72.484 0 0 0-.079-.025c-.874.496-2.02.744-3.437.744-.6 0-1.152-.02-1.655-.06l.003.013c.571 2.308.423 4.127-.442 5.457-.866 1.33-2.46 1.995-4.783 1.995-.787 0-1.49-.034-2.11-.102a16.95 16.95 0 0 1-1.683-.265 15.008 15.008 0 0 1-1.358-.352l-.296-.092-.553-.169-.258-.076-3.572-14.728h4.399zm40.15 10.625c1.04 0 1.884.84 1.884 1.875a1.88 1.88 0 0 1-1.884 1.875 1.88 1.88 0 0 1-1.884-1.875 1.88 1.88 0 0 1 1.884-1.875zm4.27 0c1.041 0 1.885.84 1.885 1.875a1.88 1.88 0 0 1-1.884 1.875 1.88 1.88 0 0 1-1.885-1.875 1.88 1.88 0 0 1 1.885-1.875zM91.658 1.75c.67 0 1.183.3 1.54.901.356.6.578 1.429.534 2.478-.03.741-.256 1.331-.594 2.054-.338.722-.949 1.2-1.737 1.504-.689.266-1.49.443-2.404.53l-.464-1.905h.013a9.735 9.735 0 0 0 1.207-.125c.315-.062.77-.185 1.086-.282-.572-.115-.995-.336-1.268-.663s-.41-.755-.41-1.285c0-.54.113-1.054.338-1.544.224-.49.526-.89.905-1.2.378-.308.797-.463 1.254-.463zm-.224 2a.54.54 0 0 0-.31.12.965.965 0 0 0-.39.795c0 .186.11.322.338.397.23.076.566.125.97.12.035-.182.035-.335.035-.432 0-.31-.06-.47-.187-.681-.128-.212-.28-.318-.456-.318z" fill="#12151A"></path></g></svg>
