<svg xmlns="http://www.w3.org/2000/svg" width="167" height="40" fill="none" data-sentry-element="Logo" data-sentry-source-file="layout.tsx"><path fill="#7C4DFF" d="M149.293 28.652c-6.04-.008-10.937-4.905-10.945-10.945.008-6.04 4.905-10.938 10.945-10.945 6.041.007 10.938 4.9 10.945 10.945-.011 6.04-4.904 10.937-10.945 10.944m0-28.652c-9.776.01-17.699 7.934-17.71 17.71.011 9.777 7.934 17.7 17.71 17.71 9.777-.01 17.696-7.933 17.711-17.71-.015-9.78-7.938-17.7-17.711-17.71"></path><path fill="#FF9100" d="M131.137 30.82a4.591 4.591 0 1 0 .002 9.182 4.591 4.591 0 0 0-.002-9.182"></path><path fill="#000" fill-opacity="0.56" d="M14.754 28.083a3.296 3.296 0 0 0 3.297-3.297 3.296 3.296 0 1 0-6.594 0 3.296 3.296 0 0 0 3.297 3.297M91.91 20.396a16.7 16.7 0 0 1-5.776 12.624l-2.26 1.961a.927.927 0 0 0-.09 1.318l2.475 2.819a.946.946 0 0 0 1.33.089l2.26-1.961a22.3 22.3 0 0 0 7.709-16.85v-3.6a.94.94 0 0 0-.94-.936h-3.765c-.521 0-.943.646-.943 1.16v-.224zM107.542 10.19h-4.022a.94.94 0 0 0-.943.937v3.74c0 .518.421.936.943.936h4.136c2.651 0 4.969 1.95 5.219 4.568.268 2.783-1.786 5.258-4.59 5.523a6 6 0 0 1-.479.025h-5.697a.94.94 0 0 0-.943.936v3.74c0 .518.421.935.943.935h5.697c5.94-.007 10.748-4.793 10.741-10.694q0-.194-.007-.386c-.221-5.776-5.183-10.26-10.998-10.26M77.633 25.865c-2.826 0-5.115-2.272-5.115-5.08 0-2.803 2.29-5.079 5.111-5.079 2.822 0 5.115 2.272 5.115 5.08-.003 2.804-2.29 5.076-5.111 5.08m10.68-5.08c0-5.857-4.783-10.608-10.68-10.608-5.898 0-10.68 4.75-10.68 10.609 0 5.858 4.782 10.609 10.68 10.609 5.894-.007 10.673-4.751 10.68-10.61M105.841 6.594a3.296 3.296 0 0 0 3.297-3.297A3.296 3.296 0 0 0 105.841 0a3.296 3.296 0 1 0 0 6.594M54.468 36.342a3.296 3.296 0 0 0 3.297-3.297 3.296 3.296 0 1 0-6.594 0 3.296 3.296 0 0 0 3.297 3.297M57.833 16.328c-.004 2.457-2.011 4.444-4.483 4.44q-.148 0-.297-.01c-2.371-.158-4.165-2.226-4.165-4.59V13.67a.896.896 0 0 0-.896-.893h-4.244a.504.504 0 0 0-.507.504c0 3.483-2.561 7.055-6.044 7.44-3.75.422-7.137-2.253-7.562-5.98a7 7 0 0 1-.043-.756v-.265a.91.91 0 0 0-.91-.907h-3.826a.906.906 0 0 0-.911.904c0 6.84 5.465 12.588 12.348 12.655a12.5 12.5 0 0 0 9.134-3.825 10.13 10.13 0 0 0 8.559 3.808c5.38-.322 9.501-4.912 9.501-10.266v-5.001a.91.91 0 0 0-.91-.908H58.75a.906.906 0 0 0-.911.904zM32.818 30.237h11.866c.414 0 .754.426.754.95v3.716c0 .525-.336.95-.754.95H32.818c-.415 0-.754-.425-.754-.95v-3.715c.004-.525.34-.95.754-.95"></path><path fill="#000" fill-opacity="0.56" d="M14.268 33.899c-5.076-.275-8.966-4.583-8.69-9.627.25-4.53 3.8-8.19 8.343-8.608a.92.92 0 0 0 .847-.915v-3.693a.923.923 0 0 0-.929-.922h-.057C5.645 10.674-.51 17.664.033 25.747c.543 8.084 7.58 14.2 15.717 13.656 7.38-.489 13.256-6.326 13.75-13.656a.926.926 0 0 0-.872-.978c-.018 0-.04-.004-.058-.004h-3.718a.92.92 0 0 0-.918.843c-.46 4.897-4.726 8.555-9.666 8.29"></path></svg>
